<svg width="17" height="17" viewBox="0 0 17 17" fill="none" xmlns="http://www.w3.org/2000/svg">
<path d="M15.4545 12.3636V5.40909H4.63636V12.3636H15.4545ZM15.4545 1.54545C15.8644 1.54545 16.2575 1.70828 16.5473 1.99811C16.8372 2.28794 17 2.68103 17 3.09091V12.3636C17 12.7735 16.8372 13.1666 16.5473 13.4564C16.2575 13.7463 15.8644 13.9091 15.4545 13.9091H4.63636C3.77864 13.9091 3.09091 13.2136 3.09091 12.3636V3.09091C3.09091 2.68103 3.25373 2.28794 3.54356 1.99811C3.83339 1.70828 4.22648 1.54545 4.63636 1.54545H5.40909V0H6.95455V1.54545H13.1364V0H14.6818V1.54545H15.4545ZM12.7732 7.77364L9.34227 11.2045L7.27136 9.13364L8.09045 8.31455L9.34227 9.56636L11.9541 6.95455L12.7732 7.77364ZM1.54545 15.4545H12.3636V17H1.54545C0.687727 17 0 16.3045 0 15.4545V6.18182H1.54545V15.4545Z" fill="#404B52"/>
</svg>
