<svg width="31" height="31" viewBox="0 0 31 31" fill="none" xmlns="http://www.w3.org/2000/svg">
<path d="M15.6193 8.16434C11.336 8.16434 7.88116 11.6192 7.88116 15.9025C7.88116 20.1857 11.336 23.6406 15.6193 23.6406C19.9025 23.6406 23.3574 20.1857 23.3574 15.9025C23.3574 11.6192 19.9025 8.16434 15.6193 8.16434ZM15.6193 20.9333C12.8513 20.9333 10.5885 18.6772 10.5885 15.9025C10.5885 13.1278 12.8446 10.8717 15.6193 10.8717C18.394 10.8717 20.6501 13.1278 20.6501 15.9025C20.6501 18.6772 18.3872 20.9333 15.6193 20.9333ZM25.4788 7.84781C25.4788 8.85128 24.6707 9.6527 23.674 9.6527C22.6705 9.6527 21.8691 8.84454 21.8691 7.84781C21.8691 6.85108 22.6772 6.04292 23.674 6.04292C24.6707 6.04292 25.4788 6.85108 25.4788 7.84781ZM30.6039 9.67964C30.4894 7.2619 29.9372 5.12027 28.166 3.35579C26.4015 1.59131 24.2599 1.03906 21.8421 0.917839C19.3503 0.776411 11.8816 0.776411 9.38973 0.917839C6.97871 1.03233 4.83709 1.58457 3.06587 3.34905C1.29465 5.11354 0.749146 7.25516 0.627922 9.67291C0.486494 12.1647 0.486494 19.6335 0.627922 22.1253C0.742411 24.5431 1.29465 26.6847 3.06587 28.4492C4.83709 30.2136 6.97198 30.7659 9.38973 30.8871C11.8816 31.0285 19.3503 31.0285 21.8421 30.8871C24.2599 30.7726 26.4015 30.2204 28.166 28.4492C29.9305 26.6847 30.4827 24.5431 30.6039 22.1253C30.7454 19.6335 30.7454 12.1715 30.6039 9.67964ZM27.3848 24.799C26.8595 26.119 25.8425 27.1359 24.5158 27.6679C22.5291 28.4559 17.8148 28.2741 15.6193 28.2741C13.4238 28.2741 8.70279 28.4492 6.7228 27.6679C5.4028 27.1426 4.38587 26.1257 3.85383 24.799C3.06587 22.8122 3.24771 18.098 3.24771 15.9025C3.24771 13.707 3.07261 8.98597 3.85383 7.00598C4.37913 5.68598 5.39607 4.66905 6.7228 4.13701C8.70952 3.34905 13.4238 3.53089 15.6193 3.53089C17.8148 3.53089 22.5358 3.35579 24.5158 4.13701C25.8358 4.66231 26.8527 5.67925 27.3848 7.00598C28.1727 8.99271 27.9909 13.707 27.9909 15.9025C27.9909 18.098 28.1727 22.819 27.3848 24.799Z" fill="black"/>
</svg>
