<svg width="31" height="31" viewBox="0 0 31 31" fill="none" xmlns="http://www.w3.org/2000/svg">
<path d="M7.33676 30.5056H1.07811V10.351H7.33676V30.5056ZM4.20407 7.60168C2.20275 7.60168 0.579468 5.94403 0.579468 3.94272C0.579468 2.98141 0.961344 2.05948 1.64109 1.37974C2.32083 0.699992 3.24276 0.318115 4.20407 0.318115C5.16537 0.318115 6.0873 0.699992 6.76705 1.37974C7.44679 2.05948 7.82867 2.98141 7.82867 3.94272C7.82867 5.94403 6.20471 7.60168 4.20407 7.60168ZM30.7609 30.5056H24.5157V20.6944C24.5157 18.3562 24.4685 15.3576 21.2617 15.3576C18.0077 15.3576 17.5091 17.898 17.5091 20.526V30.5056H11.2572V10.351H17.2598V13.1002H17.3474C18.1829 11.5167 20.224 9.84558 23.2691 9.84558C29.6032 9.84558 30.7676 14.0167 30.7676 19.4344V30.5056H30.7609Z" fill="black"/>
</svg>
