<svg width="31" height="31" viewBox="0 0 31 31" fill="none" xmlns="http://www.w3.org/2000/svg">
<path d="M27.562 0.811768H3.84272C2.05704 0.811768 0.608276 2.26053 0.608276 4.04621V27.7655C0.608276 29.5512 2.05704 30.9999 3.84272 30.9999H27.562C29.3477 30.9999 30.7964 29.5512 30.7964 27.7655V4.04621C30.7964 2.26053 29.3477 0.811768 27.562 0.811768ZM24.2669 11.5124C24.2804 11.7011 24.2804 11.8965 24.2804 12.0852C24.2804 17.9274 19.833 24.6591 11.7065 24.6591C9.19977 24.6591 6.87501 23.9313 4.92087 22.678C5.27801 22.7184 5.62167 22.7319 5.98554 22.7319C8.05424 22.7319 9.95447 22.0311 11.4706 20.8451C9.52995 20.8047 7.89925 19.5311 7.33996 17.7791C8.02055 17.8802 8.63374 17.8802 9.33454 17.6983C7.31301 17.2872 5.79686 15.5083 5.79686 13.3587V13.3048C6.38311 13.635 7.07043 13.8371 7.79144 13.8641C7.18527 13.4609 6.68835 12.9139 6.34502 12.2719C6.00169 11.6299 5.82263 10.9129 5.82382 10.1849C5.82382 9.36283 6.03945 8.60813 6.42354 7.9545C8.60005 10.6364 11.8682 12.3884 15.5339 12.5771C14.9072 9.57846 17.1511 7.14589 19.8465 7.14589C21.12 7.14589 22.2656 7.67822 23.0742 8.54074C24.0715 8.35207 25.0283 7.98145 25.8774 7.47607C25.5472 8.50031 24.8531 9.36283 23.9367 9.90864C24.8262 9.81431 25.6887 9.56498 26.4838 9.22132C25.8841 10.1041 25.1294 10.8857 24.2669 11.5124Z" fill="black"/>
</svg>
